<?xml version="1.0" standalone="no"?>
<!DOCTYPE svg PUBLIC "-//W3C//DTD SVG 20010904//EN"
 "http://www.w3.org/TR/2001/REC-SVG-20010904/DTD/svg10.dtd">
<svg version="1.0" xmlns="http://www.w3.org/2000/svg"
 width="466.000000pt" height="200.000000pt" viewBox="0 0 466.000000 200.000000"
 preserveAspectRatio="xMidYMid meet">

<g transform="translate(0.000000,200.000000) scale(0.100000,-0.100000)"
fill="#000000" stroke="none">
<path d="M3670 1869 c-52 -21 -99 -40 -105 -42 -6 -2 -3 -25 8 -58 26 -81 29
-85 67 -69 27 11 33 11 41 -1 17 -26 9 -44 -29 -66 -57 -32 -134 -106 -177
-168 -22 -32 -44 -54 -51 -51 -8 3 -11 -1 -8 -9 3 -7 -1 -25 -8 -40 -13 -25
-14 -24 -12 24 2 28 5 60 9 71 5 17 0 23 -31 36 -43 18 -42 19 -81 -71 l-21
-50 -1200 -3 c-1311 -2 -1225 2 -1224 -59 0 -46 22 -53 182 -53 133 0 149 -2
165 -20 23 -26 13 -68 -21 -80 -14 -6 -81 -10 -148 -10 -106 0 -125 -2 -139
-18 -21 -23 -22 -56 -1 -76 13 -14 53 -16 283 -16 247 0 269 -1 284 -18 23
-26 21 -58 -5 -76 -19 -14 -63 -16 -275 -16 l-253 0 -15 -24 c-17 -25 -11 -53
14 -73 12 -9 78 -12 233 -13 l218 0 16 -25 c15 -23 15 -27 1 -49 -22 -32 -56
-37 -262 -36 -124 1 -180 -2 -190 -10 -19 -16 -19 -54 -2 -69 10 -8 386 -11
1355 -11 l1341 0 73 -35 c153 -73 303 -82 450 -26 111 41 164 75 239 151 146
148 202 359 149 564 -36 142 -120 263 -237 342 -32 21 -64 45 -71 51 -7 7 -23
15 -35 18 -12 2 -58 12 -101 21 -99 21 -306 11 -360 -18 -21 -11 -21 -11 -2
11 11 12 26 19 33 16 8 -2 11 0 8 5 -3 6 -1 10 4 10 6 0 11 6 11 13 0 8 11 19
25 25 30 14 31 25 4 91 -14 33 -27 51 -38 50 -9 -1 -59 -18 -111 -40z m407
-293 c89 -24 145 -57 214 -125 147 -148 180 -348 88 -538 -31 -62 -141 -173
-202 -202 -197 -94 -406 -56 -552 101 -171 184 -168 452 7 634 61 63 148 115
224 133 59 14 163 12 221 -3z m-2159 -418 l3 -48 -95 0 -96 0 0 -29 c0 -35 13
-41 96 -41 l64 0 0 -40 0 -40 -80 0 -80 0 0 -85 0 -85 -65 0 -65 0 0 210 0
211 158 -3 157 -3 3 -47z m345 -83 c27 -71 62 -165 78 -207 l28 -78 -68 0 -69
0 -12 35 -12 35 -68 0 -68 0 -12 -35 -12 -35 -64 0 c-35 0 -64 3 -64 7 0 4 34
98 76 210 l77 204 70 -3 70 -3 50 -130z m444 118 c34 -16 79 -86 67 -105 -3
-4 -32 -8 -64 -8 -50 0 -60 3 -65 20 -12 37 -90 41 -90 5 0 -15 11 -23 45 -33
25 -7 63 -18 85 -25 60 -18 95 -54 102 -106 15 -109 -84 -175 -232 -156 -66 8
-117 46 -135 101 -7 20 -10 37 -8 38 1 2 29 6 61 8 56 5 57 4 77 -29 16 -27
25 -33 53 -33 38 0 60 19 55 47 -2 13 -27 26 -88 45 -61 20 -93 36 -112 58
-52 57 -29 143 46 176 45 19 160 18 203 -3z m533 -38 l0 -55 -65 0 -65 0 0
-155 0 -155 -65 0 -65 0 0 155 0 155 -65 0 -65 0 0 48 c0 27 3 52 7 55 3 4 91
7 195 7 l188 0 0 -55z"/>
<path d="M4018 1530 c-3 -17 -1 -33 4 -36 4 -3 8 1 8 8 0 7 3 23 6 36 4 12 2
22 -4 22 -5 0 -12 -14 -14 -30z"/>
<path d="M3812 1499 c6 -16 13 -28 15 -25 8 8 -6 56 -17 56 -5 0 -5 -13 2 -31z"/>
<path d="M4216 1451 c-10 -11 -16 -25 -14 -32 2 -7 12 0 22 16 21 32 16 43 -8
16z"/>
<path d="M3873 1453 c-13 -2 -23 -10 -23 -16 0 -7 20 -64 45 -127 50 -127 51
-133 31 -149 -20 -17 -26 -83 -9 -100 11 -10 17 -11 26 -2 6 6 18 11 27 11 25
0 50 33 50 64 0 18 27 66 79 141 87 124 86 117 11 156 -35 17 -64 23 -130 25
-47 1 -95 0 -107 -3z m115 -305 c19 -19 14 -46 -8 -53 -22 -7 -50 9 -50 29 0
15 20 36 35 36 6 0 16 -5 23 -12z"/>
<path d="M3635 1380 c10 -11 25 -20 34 -20 12 0 9 6 -9 20 -33 26 -48 26 -25
0z"/>
<path d="M4330 1275 c-18 -10 -20 -14 -8 -15 23 0 48 11 48 21 0 12 -11 11
-40 -6z"/>
<path d="M3530 1192 c0 -12 59 -22 66 -10 3 4 -1 8 -8 8 -7 0 -23 3 -35 6 -13
4 -23 2 -23 -4z"/>
<path d="M4350 1060 c36 -11 52 -11 45 0 -3 6 -21 10 -38 9 -31 -1 -31 -1 -7
-9z"/>
<path d="M3570 980 c-26 -16 -3 -22 27 -6 23 13 24 15 8 15 -11 1 -27 -3 -35
-9z"/>
<path d="M4270 870 c33 -26 48 -26 25 0 -10 11 -25 20 -34 20 -12 0 -9 -6 9
-20z"/>
<path d="M3706 815 c-10 -14 -16 -29 -13 -31 7 -8 39 35 35 47 -2 7 -12 0 -22
-16z"/>
<path d="M4101 765 c-1 -21 15 -52 23 -45 2 3 -2 19 -9 35 -10 23 -14 25 -14
10z"/>
<path d="M3896 732 c-4 -18 -5 -36 -2 -39 11 -12 17 5 14 39 l-3 33 -9 -33z"/>
<path d="M2138 1074 c-5 -8 -38 -113 -38 -121 0 -2 18 -3 40 -3 38 0 40 1 34
26 -17 69 -31 106 -36 98z"/>
<path d="M4152 1805 c-16 -35 -15 -54 3 -61 8 -4 15 -12 15 -20 0 -8 6 -11 17
-7 10 4 14 2 9 -5 -4 -6 1 -10 11 -10 10 1 36 -2 59 -6 37 -7 41 -5 52 19 7
14 12 32 12 38 0 11 -135 77 -158 77 -5 0 -14 -11 -20 -25z"/>
<path d="M392 1348 c-18 -18 -14 -56 7 -68 11 -5 84 -10 164 -10 131 0 145 2
162 20 15 17 16 24 7 45 l-12 25 -158 0 c-110 0 -162 -4 -170 -12z"/>
<path d="M118 1133 c-23 -6 -34 -49 -18 -68 10 -12 40 -15 146 -15 l134 0 12
26 c11 23 10 29 -11 45 -20 16 -39 19 -135 18 -61 -1 -119 -3 -128 -6z"/>
<path d="M503 1130 c-26 -11 -31 -51 -9 -69 9 -8 57 -11 146 -9 128 3 133 4
141 26 6 17 4 27 -11 42 -18 18 -33 20 -132 19 -62 0 -123 -4 -135 -9z"/>
<path d="M262 898 c-32 -32 -3 -78 51 -78 24 0 56 26 56 45 0 36 -79 61 -107
33z"/>
<path d="M466 894 c-21 -20 -20 -37 2 -57 16 -14 44 -17 183 -17 173 0 189 4
189 45 0 41 -16 45 -191 45 -139 0 -170 -3 -183 -16z"/>
<path d="M632 698 c-18 -18 -14 -56 7 -68 28 -14 174 -13 189 2 7 7 12 21 12
33 0 37 -19 45 -110 45 -54 0 -91 -5 -98 -12z"/>
<path d="M2145 471 c-3 -2 -5 -53 -5 -113 l0 -108 60 0 c113 0 159 42 147 132
-9 66 -38 88 -125 91 -40 2 -75 1 -77 -2z m129 -82 c12 -35 0 -76 -24 -84 -32
-10 -40 3 -40 61 0 54 0 55 27 52 19 -2 30 -11 37 -29z"/>
<path d="M2400 365 l0 -115 95 0 c95 0 95 0 95 25 0 24 -3 25 -60 25 -58 0
-60 1 -60 26 0 24 2 25 53 23 47 -3 52 -1 55 19 3 20 -1 22 -52 22 -49 0 -56
2 -56 20 0 18 7 20 55 20 51 0 55 2 55 23 0 23 -3 23 -90 25 l-90 2 0 -115z"/>
<path d="M2640 364 l0 -114 91 0 90 0 -3 28 c-3 25 -7 27 -55 30 l-52 3 -3 82
-3 82 -32 1 -33 1 0 -113z"/>
<path d="M2864 465 c-3 -6 -3 -56 -2 -111 l3 -99 33 -3 32 -3 0 114 0 113 -31
0 c-17 0 -33 -5 -35 -11z"/>
<path d="M2980 470 c0 -4 18 -54 39 -111 l39 -104 38 -3 39 -3 38 103 c20 57
37 108 37 113 0 6 -14 10 -32 10 -30 0 -33 -3 -49 -58 -29 -98 -29 -98 -57
-17 -26 71 -28 75 -59 76 -18 1 -33 -2 -33 -6z"/>
<path d="M3254 465 c-3 -6 -3 -56 -2 -111 l3 -99 93 -3 92 -3 0 25 c0 23 -4
25 -57 28 -50 3 -58 6 -58 23 0 17 8 20 53 23 43 3 52 6 52 22 0 16 -9 19 -52
22 -39 2 -53 7 -53 18 0 11 14 16 58 18 54 3 58 5 55 25 -3 21 -8 22 -91 23
-60 1 -90 -3 -93 -11z"/>
<path d="M3494 465 c-3 -6 -3 -56 -2 -111 l3 -99 35 0 c34 0 35 1 35 39 1 55
20 56 47 2 20 -43 25 -46 60 -46 21 0 38 3 38 8 0 4 -12 27 -25 51 -22 37 -23
45 -11 55 25 19 29 60 9 83 -15 18 -32 22 -102 25 -56 3 -84 1 -87 -7z m130
-50 c4 -11 -3 -19 -20 -25 -37 -14 -47 -3 -35 38 3 10 50 -1 55 -13z"/>
<path d="M3720 470 c0 -4 18 -32 40 -64 34 -48 40 -65 40 -106 l0 -50 35 0 35
0 0 48 c1 38 8 58 40 107 22 33 40 62 40 66 0 5 -44 5 -71 0 -4 0 -12 -14 -19
-31 -16 -38 -23 -38 -49 2 -16 27 -27 33 -56 33 -19 1 -35 -2 -35 -5z"/>
</g>
</svg>
